<svg width="47" height="47" viewBox="0 0 47 47" fill="none" xmlns="http://www.w3.org/2000/svg">
<path d="M1.5 1.5L9.77059 1.5L12.7169 30.358C12.8394 31.1535 13.2495 31.8787 13.8719 32.3998C14.4942 32.9209 15.2868 33.2028 16.1035 33.1938L37.4389 33.1938C38.1775 33.2318 38.9083 33.0306 39.5196 32.6209C40.1312 32.2113 40.5898 31.6157 40.8255 30.9252L45.3296 17.5804C45.4976 17.0787 45.5423 16.5449 45.4596 16.0229C45.3773 15.5009 45.1701 15.0056 44.8555 14.5779C44.5277 14.1231 44.0891 13.7565 43.5804 13.5117C43.0718 13.2669 42.5086 13.1517 41.943 13.1767L10.9559 13.1767" stroke="#4D4D4D" stroke-width="3" stroke-linecap="round" stroke-linejoin="round"/>
<path d="M36.8652 44.8701C35.9301 44.8701 35.1719 44.1232 35.1719 43.202C35.1719 42.2809 35.9301 41.5339 36.8652 41.5339C37.8002 41.5339 38.5584 42.2809 38.5584 43.202C38.5584 44.1232 37.8002 44.8701 36.8652 44.8701Z" stroke="#4D4D4D" stroke-width="3" stroke-linecap="round" stroke-linejoin="round"/>
<path d="M14.8652 44.8701C13.93 44.8701 13.1719 44.1232 13.1719 43.202C13.1719 42.2809 13.93 41.5339 14.8652 41.5339C15.8003 41.5339 16.5584 42.2809 16.5584 43.202C16.5584 44.1232 15.8003 44.8701 14.8652 44.8701Z" stroke="#4D4D4D" stroke-width="3" stroke-linecap="round" stroke-linejoin="round"/>
<path d="M22.4219 19.8486L22.4219 26.521" stroke="#4D4D4D" stroke-width="3" stroke-linecap="round" stroke-linejoin="round"/>
<path d="M32.5938 19.8486L32.5937 26.521" stroke="#4D4D4D" stroke-width="3" stroke-linecap="round" stroke-linejoin="round"/>
</svg>
